#File written by LIBUNFOLD3D. Compilation :Oct 26 2017,15:23:19
mtllib siga:mtl
#begin vertices
v -430.9599 44.3421 22.5541
v -430.9704 43.6162 22.5755
v -433.5199 43.6162 22.1266
v -433.5273 44.3421 22.0991
v -429.286 44.3421 24.5522
v -429.3062 43.6162 24.56
v -429.289 44.3421 27.1585
v -429.3099 43.6162 27.1498
v -430.9674 44.3421 29.1532
v -430.9788 43.6162 29.1289
v -433.5352 44.3421 29.6009
v -433.528 43.6162 29.5738
v -435.7885 44.3421 28.2946
v -435.7671 43.6162 28.2782
v -436.6761 44.3421 25.8476
v -436.6493 43.6162 25.8469
v -435.7841 44.3421 23.4016
v -435.7618 43.6162 23.4176
v -430.9003 23.9623 22.5592
v -433.4477 23.9623 22.1073
v -430.9075 23.9623 29.1078
v -433.4559 23.9623 29.5541
v -435.695 23.9623 28.2585
v -436.5772 23.9623 25.8272
v -435.6897 23.9623 23.3979
v -430.8498 -17.9398 22.5521
v -433.2947 -17.8505 22.0654
v -433.3312 -7.8879 22.0754
v -430.8851 -7.8879 22.6287
v -433.3895 8.0372 22.0913
v -430.8421 8.0372 22.5433
v -429.3532 -7.8879 24.7409
v -429.4077 -17.983 24.6849
v -429.2948 8.0372 24.64
v -429.2956 23.9623 24.5984
v -429.2981 -7.8879 27.2691
v -429.1603 -17.9595 27.1006
v -429.3279 8.0372 27.2566
v -429.3634 23.9623 27.2497
v -430.791 -7.8879 29.076
v -430.8776 -17.8808 28.9463
v -430.8492 8.0372 29.0919
v -433.3398 -7.8879 29.5217
v -433.3798 -17.7835 29.4204
v -433.3976 8.0372 29.5382
v -435.5776 -7.8879 28.2257
v -435.4725 -17.713 28.1466
v -435.6368 8.0372 28.2425
v -436.4607 -7.8879 25.7953
v -436.4248 -17.7026 25.7855
v -436.519 8.0372 25.8113
v -435.5729 -7.8879 23.3663
v -435.5008 -17.7568 23.3924
v -435.6314 8.0372 23.382
v -429.6569 -17.4338 24.7734
v -430.9861 -17.3858 22.7918
v -429.4293 -17.4248 27.0129
v -431.0105 -17.3698 28.7157
v -433.3298 -17.2926 29.1551
v -435.2712 -17.2278 27.975
v -436.1503 -17.2079 25.7861
v -435.2939 -17.2399 23.5678
v -433.2489 -17.3098 22.3384
v -429.2352 65.3422 24.4915
v -429.2382 65.3422 27.1172
v -430.9215 65.3422 22.4783
v -433.5081 65.3422 22.0196
v -435.7845 65.3422 23.3299
v -435.7901 65.3422 28.2646
v -436.6858 65.3422 25.7963
v -433.5166 65.3422 29.5799
v -430.929 65.3422 29.1267
v -432.8449 65.4497 25.7999
v -429.2762 65.4497 27.1027
v -429.2733 65.4497 24.5049
v -430.9417 65.4497 22.5131
v -433.5008 65.4497 22.0592
v -435.7531 65.4497 23.3557
v -436.6448 65.4497 25.7959
v -435.7586 65.4497 28.238
v -433.5092 65.4497 29.5393
v -430.9491 65.4497 29.0909
v -432.6459 -17.745 25.7809
#end vertices

#begin 111 textures vertices 
vt 0.2468853 0.2241521 0
vt 0.2466039 0.2318281 0
vt 0.2192655 0.2315251 0
vt 0.2194064 0.22385 0
vt 0.02757054 0.2228691 0
vt 0.02764199 0.230546 0
vt 0.05501033 0.2229324 0
vt 0.05502332 0.2306031 0
vt 0.08243642 0.2230312 0
vt 0.08241072 0.2306951 0
vt 0.1098457 0.2231397 0
vt 0.109797 0.2307903 0
vt 0.1372298 0.2232615 0
vt 0.1371748 0.2309045 0
vt 0.1645992 0.2234121 0
vt 0.1645438 0.2310586 0
vt 0.1919842 0.2236001 0
vt 0.191907 0.2312637 0
vt 0.2450421 0.4391693 0
vt 0.2177457 0.4388922 0
vt 0.08124468 0.4380783 0
vt 0.1085514 0.4381328 0
vt 0.1358561 0.4382232 0
vt 0.1631545 0.4383827 0
vt 0.1904491 0.4386149 0
vt 0.239764 0.8820259 0
vt 0.2136061 0.8802251 0
vt 0.2156293 0.7750669 0
vt 0.2420903 0.7754808 0
vt 0.2167769 0.6069213 0
vt 0.2440767 0.6071934 0
vt 0.02801981 0.7741229 0
vt 0.02837909 0.8807314 0
vt 0.02751064 0.6059554 0
vt 0.02775834 0.4379352 0
vt 0.05468035 0.7740686 0
vt 0.05384761 0.8802344 0
vt 0.0551239 0.6060429 0
vt 0.05574591 0.4380123 0
vt 0.07937533 0.7739655 0
vt 0.0802915 0.8792626 0
vt 0.08028284 0.6060905 0
vt 0.106624 0.7739699 0
vt 0.1070799 0.878212 0
vt 0.1075896 0.606136 0
vt 0.1338562 0.7740747 0
vt 0.1328648 0.8776295 0
vt 0.1348949 0.606226 0
vt 0.161094 0.774323 0
vt 0.1596563 0.8777772 0
vt 0.1621896 0.6063934 0
vt 0.1883494 0.7746496 0
vt 0.1866054 0.8787348 0
vt 0.1894825 0.6066363 0
vt 0.02850881 0.8871262 0
vt 0.2380198 0.8883595 0
vt 0.05415696 0.8864035 0
vt 0.08073597 0.8852387 0
vt 0.1073851 0.8840048 0
vt 0.1330109 0.8834056 0
vt 0.1594546 0.8836482 0
vt 0.1861441 0.884809 0
vt 0.2128847 0.8864315 0
vt 0.02768558 0.00126862 0
vt 0.05538565 0.001366167 0
vt -1.845631e-005 0.001221501 0
vt 0.2216444 0.002248893 0
vt 0.1939339 0.00204599 0
vt 0.1385223 0.00175733 0
vt 0.1662294 0.001885079 0
vt 0.1108078 0.001629064 0
vt 0.08309123 0.001493797 0
vt 0.3094574 0.9621825 0
vt 0.28744 0.9325571 0
vt 0.3119391 0.9254736 0
vt 0.3352767 0.9355678 0
vt 0.346534 0.9581168 0
vt 0.3404421 0.9825694 0
vt 0.3198524 0.9974846 0
vt 0.2943988 0.9958826 0
vt 0.2759915 0.9785135 0
vt 0.2732436 0.9535042 0
vt 0.4075861 0.03971013 0
vt 0.3775938 0.01183892 0
vt 0.4465685 0.05526099 0
vt 0.4302981 0.005452148 0
vt 0.3701309 0.03763468 0
vt 0.4026617 -3.088156e-012 0
vt 0.3760912 0.06547598 0
vt 0.4272476 0.07601735 0
vt 0.4465685 0.02713164 0
vt 0.3991432 0.08053696 0
vt 0.0003791819 0.4378726 0
vt 9.068488e-005 0.2228543 0
vt 0.00125378 0.880767 0
vt 0.0002922359 0.2305242 0
vt 0.002577471 0.8872915 0
vt 0.2493587 0.002506794 0
vt 0.2492227 0.001303245 0
vt 1.477981e-005 0.6059164 0
vt 0.000506659 0.7742577 0
vt 0.02768527 6.812802e-005 0
vt 0.1108111 0.0004256216 0
vt 0.2216569 0.001050458 0
vt 0.08309205 0.000291065 0
vt 0.1939463 0.0008447739 0
vt 0.1385291 0.0005540601 0
vt 0.1662398 0.000682659 0
vt 0.3352767 0.9355678 0
vt 0.05538427 0.0001647279 0
vt 0.0001297424 1.617705e-005 0
#end 111 textures vertices 

#begin 80 normals 
vn 0.5005 -0.0184 -0.8656
vn 0.4999 -0.0152 -0.8659
vn -0.1732 -0.0195 -0.9847
vn -0.1736 -0.0212 -0.9846
vn 0.9399 -0.0165 -0.3409
vn 0.9398 -0.0151 -0.3413
vn 0.939 -0.0163 0.3436
vn 0.9392 -0.016 0.3431
vn 0.498 -0.0182 0.867
vn 0.4981 -0.018 0.867
vn -0.1758 -0.0186 0.9842
vn -0.175 -0.0201 0.9844
vn -0.7669 -0.0181 0.6416
vn -0.7665 -0.0204 0.6419
vn -0.9998 -0.0186 -0.0005
vn -0.9998 -0.0204 -0.0011
vn -0.766 -0.0199 -0.6425
vn -0.7651 -0.02 -0.6435
vn 0.514 0.0026 -0.8578
vn -0.1725 0.0003 -0.985
vn 0.5016 0.0009 0.8651
vn -0.1747 -0.0016 0.9846
vn -0.7667 -0.0035 0.642
vn -1 -0.0037 -0.0011
vn -0.7652 -0.0022 -0.6437
vn 0.2289 -0.9043 -0.3604
vn -0.0989 -0.906 -0.4115
vn -0.1494 0.0004 -0.9888
vn 0.5506 0.0012 -0.8348
vn -0.1725 0.0004 -0.985
vn 0.5274 -0.0016 -0.8496
vn 0.9481 -0.0044 -0.3179
vn 0.3284 -0.9361 -0.1259
vn 0.9518 -0.0031 -0.3068
vn 0.949 -0.0004 -0.3152
vn 0.9439 0.0047 0.3303
vn 0.4256 -0.8927 0.148
vn 0.9386 0.0021 0.3451
vn 0.9359 0.0007 0.3524
vn 0.5031 -0.0073 0.8642
vn 0.1637 -0.9182 0.3606
vn 0.5021 0.001 0.8648
vn -0.174 -0.0055 0.9847
vn -0.1038 -0.9024 0.4182
vn -0.7666 -0.0084 0.6421
vn -0.32 -0.9126 0.2543
vn -0.7667 -0.0035 0.6421
vn -1 -0.0037 -0.0009
vn -0.4395 -0.8982 0.0108
vn -0.7652 -0.0047 -0.6438
vn -0.3269 -0.9126 -0.2456
vn -0.5229 -0.8326 0.1825
vn -0.3422 -0.8157 0.4664
vn -0.5502 -0.8166 -0.1746
vn -0.2837 -0.8346 -0.4722
vn 0.0739 -0.8389 -0.5392
vn 0.3931 -0.8496 -0.3517
vn 0.5352 -0.8447 -0.0025
vn 0.402 -0.8425 0.3585
vn 0.0737 -0.8284 0.5552
vn 0.9263 0.1706 -0.336
vn 0.9251 0.1727 0.3381
vn 0.4936 0.1696 -0.853
vn -0.1701 0.1702 -0.9706
vn -0.7539 0.172 -0.6341
vn -0.7547 0.1759 0.6321
vn -0.9847 0.1743 -0.001
vn -0.172 0.1761 0.9692
vn 0.4912 0.1748 0.8533
vn 0 1 -0
vn 0.6033 0.7667 0.2196
vn 0.6044 0.7658 -0.2199
vn 0.3223 0.7653 -0.5572
vn -0.1105 0.7656 -0.6338
vn -0.491 0.7664 -0.4141
vn -0.6411 0.7674 -0.0014
vn -0.491 0.7682 0.4109
vn -0.1116 0.7682 0.6304
vn 0.3203 0.7677 0.5551
vn -0.0299 -0.9996 0.0027
#end 80 normals 

#begin 90 faces
o siga_
usemtl wire_134059008
g siga_
s 1
f 1/1/1 2/2/2 3/3/3 4/4/4 
f 1/94/1 5/5/5 6/6/6 2/96/2 
f 5/5/5 7/7/7 8/8/8 6/6/6 
f 7/7/7 9/9/9 10/10/10 8/8/8 
f 9/9/9 11/11/11 12/12/12 10/10/10 
f 11/11/11 13/13/13 14/14/14 12/12/12 
f 13/13/13 15/15/15 16/16/16 14/14/14 
f 15/15/15 17/17/17 18/18/18 16/16/16 
f 17/17/17 4/4/4 3/3/3 18/18/18 
usemtl beliy
f 19/19/19 20/20/20 3/3/3 2/2/2 
f 21/21/21 10/10/10 12/12/12 22/22/22 
f 22/22/22 12/12/12 14/14/14 23/23/23 
f 23/23/23 14/14/14 16/16/16 24/24/24 
f 24/24/24 16/16/16 18/18/18 25/25/25 
f 25/25/25 18/18/18 3/3/3 20/20/20 
f 26/26/26 27/27/27 28/28/28 29/29/29 
f 29/29/29 28/28/28 30/30/30 31/31/31 
f 31/31/31 30/30/30 20/20/20 19/19/19 
f 29/101/29 32/32/32 33/33/33 26/95/26 
f 29/101/29 31/100/31 34/34/34 32/32/32 
f 31/100/31 19/93/19 35/35/35 34/34/34 
f 32/32/32 36/36/36 37/37/37 33/33/33 
f 32/32/32 34/34/34 38/38/38 36/36/36 
f 34/34/34 35/35/35 39/39/39 38/38/38 
f 36/36/36 40/40/40 41/41/41 37/37/37 
f 36/36/36 38/38/38 42/42/42 40/40/40 
f 38/38/38 39/39/39 21/21/21 42/42/42 
f 40/40/40 43/43/43 44/44/44 41/41/41 
f 40/40/40 42/42/42 45/45/22 43/43/43 
f 42/42/42 21/21/21 22/22/22 45/45/22 
f 43/43/43 46/46/45 47/47/46 44/44/44 
f 43/43/43 45/45/22 48/48/47 46/46/45 
f 45/45/22 22/22/22 23/23/23 48/48/47 
f 46/46/45 49/49/48 50/50/49 47/47/46 
f 46/46/45 48/48/47 51/51/24 49/49/48 
f 48/48/47 23/23/23 24/24/24 51/51/24 
f 49/49/48 52/52/50 53/53/51 50/50/49 
f 49/49/48 51/51/24 54/54/25 52/52/50 
f 51/51/24 24/24/24 25/25/25 54/54/25 
f 52/52/50 28/28/28 27/27/27 53/53/51 
f 52/52/50 54/54/25 30/30/30 28/28/28 
f 54/54/25 25/25/25 20/20/20 30/30/30 
f 2/96/2 6/6/6 35/35/35 19/93/19 
f 6/6/6 8/8/8 39/39/39 35/35/35 
f 8/8/8 10/10/10 21/21/21 39/39/39 
s 2
f 26/95/26 33/33/33 55/55/52 56/97/53 
f 33/33/33 37/37/37 57/57/54 55/55/52 
f 37/37/37 41/41/41 58/58/55 57/57/54 
f 41/41/41 44/44/44 59/59/56 58/58/55 
f 44/44/44 47/47/46 60/60/57 59/59/56 
f 47/47/46 50/50/49 61/61/58 60/60/57 
f 50/50/49 53/53/51 62/62/59 61/61/58 
f 53/53/51 27/27/27 63/63/60 62/62/59 
f 27/27/27 26/26/26 56/56/53 63/63/60 
usemtl 23___Default
s 1
f 5/5/5 64/64/61 65/65/62 7/7/7 
f 5/5/5 1/94/1 66/66/63 64/64/61 
f 1/1/1 4/4/4 67/67/64 66/98/63 
f 4/4/4 17/17/17 68/68/65 67/67/64 
f 15/15/15 13/13/13 69/69/66 70/70/67 
f 13/13/13 11/11/11 71/71/68 69/69/66 
f 11/11/11 9/9/9 72/72/69 71/71/68 
f 9/9/9 7/7/7 65/65/62 72/72/69 
usemtl wire_134059008
f 73/73/70 74/74/71 75/75/72 
f 73/73/70 75/75/72 76/76/73 
f 73/73/70 76/109/73 77/77/74 
f 73/73/70 77/77/74 78/78/75 
f 73/73/70 78/78/75 79/79/76 
f 73/73/70 79/79/76 80/80/77 
f 73/73/70 80/80/77 81/81/78 
f 73/73/70 81/81/78 82/82/79 
f 73/73/70 82/82/79 74/74/71 
usemtl 23___Default
f 68/68/65 17/17/17 15/15/15 70/70/67 
s 2
f 64/64/61 75/102/72 74/110/71 65/65/62 
f 66/66/63 76/111/73 75/102/72 64/64/61 
f 67/67/64 77/104/74 76/99/73 66/98/63 
f 68/68/65 78/106/75 77/104/74 67/67/64 
f 70/70/67 79/108/76 78/106/75 68/68/65 
f 69/69/66 80/107/77 79/108/76 70/70/67 
f 71/71/68 81/103/78 80/107/77 69/69/66 
f 72/72/69 82/105/79 81/103/78 71/71/68 
f 65/65/62 74/110/71 82/105/79 72/72/69 
usemtl wire_134059008
s 1
f 56/89/53 55/87/52 83/83/80 
f 55/87/52 57/84/54 83/83/80 
f 57/84/54 58/88/55 83/83/80 
f 58/88/55 59/86/56 83/83/80 
f 59/86/56 60/91/57 83/83/80 
f 60/91/57 61/85/58 83/83/80 
f 61/85/58 62/90/59 83/83/80 
f 62/90/59 63/92/60 83/83/80 
f 63/92/60 56/89/53 83/83/80 
#end 90 faces

#begin properties
#U3DPROPERTIES_02 table {Mesh table {SymPlane table {Point vector3d 0 0 0  Normal vector3d 1 0 0  Threshold double 0.01 Enabled bool false UPos double 0.5 LocalMode bool false } RootGroup CSubMeshGroup {Children table {Tile_0_0 CSubMeshGroup {Children table {} IslandIDs ints { 0 1 2 } BBoxUV box3d 0 0 0 0 0 0 BBox3D box3d 0 0 0 0 0 0 AreaUV double 0 Area3D double 0 IsRoot bool false TopoStable table {Selected bool false Box box3d 0 1 0 1 0 1 U int 0 V int 0 NU int 0 NV int 0 Tiling vector3d 50 50 1  TileRatioMode string "1:1" } IsTile bool true } } IslandIDs ints { } BBoxUV box3d 0 0 0 0 0 0 BBox3D box3d 0 0 0 0 0 0 AreaUV double 0 Area3D double 0 IsRoot bool true TopoStable table {Selected bool false Box box3d 0 1 0 1 0 1 U int 0 V int 0 NU int 1 NV int 1 Tiling vector3d 50 50 1  TileRatioMode string "1:1" Pack table {Rotate table {Mode int 2 Min double 0 Max double 180 Step double 0 } SpacingSize double 0 MarginSize double 0 Resolution int 200 Scaling table {Mode int 0 } LayoutScalingMode int 2 MaxMutations int 1 } } IsTile bool false } Maps table {Density table {PrimType string "Polygon" Size int 1 DefaultValue double 1 ScaleType string "Log" MinValue double 0.1 MaxValue double 4 Data doubles { r 90 1 } } Pin table {PrimType string "Vertex" Size int 1 DefaultValue double 0 ScaleType string "Normalized" MinValue double 0 MaxValue double 1 Data doubles { r 111 0 } } Protect table {PrimType string "Vertex" Size int 1 DefaultValue double 0 ScaleType string "Normalized" MinValue double -1 MaxValue double 1 Data doubles { r 111 0 } } } } }
#end properties

#begin 0 fatal error vertex (that Unfold3D cannot handle)
#end 0 fatal error vertex (that Unfold3D cannot handle)

#begin 0 error vertex
#end 0 error vertex
